# xmcd
#
# Track frame offsets:
#	150
#	17080
#	33840
#	52647
#	68212
#	80740
#	96087
#	115632
#	130450
#	147112
#
# Disc length: 2158 seconds
#
# Revision: 0
# Processed by: cddbd v1.5.1PL0 Copyright (c) Steve Scherf et al.
# Submitted via: dBpowerAMP V4.0
#
DISCID=7b086c0a
DTITLE=Chalino Sanchez  - Mas Exitos Con
DYEAR=1900
DGENRE=Latin
TTITLE0=Tista Villegas
TTITLE1=Beto Lopez
TTITLE2=El Sapo
TTITLE3=El Rey Luna
TTITLE4=Cano Zazueta
TTITLE5=Ariel Caro
TTITLE6=Los Sinaloenses
TTITLE7=Juan Ramos
TTITLE8=Dos Venganzas
TTITLE9=Armando Sanchez
EXTD=
EXTT0=
EXTT1=
EXTT2=
EXTT3=
EXTT4=
EXTT5=
EXTT6=
EXTT7=
EXTT8=
EXTT9=
PLAYORDER=
